<?xml version="1.0" encoding="utf-8"?>
<!-- Generator: Adobe Illustrator 24.0.2, SVG Export Plug-In . SVG Version: 6.00 Build 0)  -->
<svg version="1.1" id="레이어_1" xmlns="http://www.w3.org/2000/svg" xmlns:xlink="http://www.w3.org/1999/xlink" x="0px"
	 y="0px" viewBox="0 0 219 134" style="enable-background:new 0 0 219 134;" xml:space="preserve">
<style type="text/css">
	.st0{fill:#231815;}
	.st1{fill:none;stroke:#231815;stroke-width:0.75;stroke-miterlimit:10;}
</style>
<g>
	<path class="st0" d="M11.2,45.7h17.2v1.6c-2,0-3.4,0.6-4.1,1.7c-0.7,1.1-1.1,3.4-1.1,6.8v49.6c0,4.9-0.6,9-1.8,12.2
		c-1.7,4.6-4.3,6.8-8,6.8c-1.9,0-3.5-0.8-4.9-2.4c-1.4-1.6-2.1-3.4-2.1-5.5c0-1.3,0.3-2.4,0.9-3.2c0.6-0.9,1.3-1.3,2.2-1.3
		c0.9,0,1.6,0.5,2.2,1.4c0.5,0.9,0.8,2.1,0.8,3.6v1.9c0,1.6,0.5,2.4,1.6,2.4c1.6,0,2.4-2.3,2.4-7V54.7c0-2.8-0.4-4.7-1.2-5.8
		c-0.8-1.1-2.2-1.6-4.2-1.6V45.7z"/>
	<path class="st0" d="M50.1,45.8l18.6,0l0,1.6c-2.4,0-4,0.5-4.8,1.5s-1.1,3.3-1.1,7l0.1,44.2c0,3.8,0.4,6.2,1.2,7.2s2.4,1.5,4.7,1.5
		l0,1.6l-18.6,0l0-1.6c2.5,0,4.1-0.6,4.8-1.7c0.7-1.1,1.1-3.5,1.1-7l-0.1-44.2c0-3.6-0.4-5.9-1.1-6.9s-2.3-1.6-4.8-1.6L50.1,45.8z"
		/>
	<path class="st0" d="M94.7,82.7l0,17.4c0,3.8,0.4,6.2,1.2,7.2c0.8,1,2.5,1.5,5,1.5l0,1.6l-19,0l0-1.6c2.5,0,4.2-0.5,4.9-1.6
		c0.8-1,1.1-3.4,1.1-7.1l0-16.8l-11.3-30c-0.8-2.2-1.5-3.6-2.2-4.4c-0.7-0.8-1.7-1.2-3.1-1.4l0-1.6l16.2,0l0,1.6
		c-1.8,0-3,0.2-3.5,0.5c-0.6,0.3-0.8,1-0.8,1.9c0,0.8,0.2,1.7,0.7,2.6l9.4,25.2l8.6-25.3l0.4-2.4c0-1-0.3-1.7-0.8-2
		c-0.6-0.4-1.5-0.6-2.9-0.5l0-1.6l12.4,0l0,1.6c-1.8,0.2-3.2,0.8-4.1,1.9c-1,1.1-2,3.1-3,6.1L94.7,82.7z"/>
	<path class="st0" d="M117,45.7l17.7,0l0,1.6c-2.2,0-3.7,0.5-4.4,1.6c-0.7,1.1-1.1,3.4-1.1,6.9l0.1,36.3c0,5.7,1.1,9.9,3.4,12.8
		c1.9,2.4,4.4,3.6,7.5,3.6c3.6,0,6.5-1.6,8.7-4.9s3.3-7.7,3.3-13.3l-0.1-34.5c0-3.5-0.4-5.8-1.1-6.9c-0.7-1.1-2.2-1.6-4.6-1.6l0-1.6
		l13.7,0l0,1.6c-2.1,0-3.5,0.6-4.3,1.7c-0.7,1.1-1.1,3.4-1.1,6.8l0.1,34.9c0,6.8-1.4,12-4.2,15.6c-2.8,3.6-6.7,5.4-11.6,5.4
		c-4.4,0-8.1-1.4-10.8-4.1c-3.7-3.7-5.6-9.5-5.6-17.5l-0.1-34.2c0-3.5-0.4-5.8-1.1-6.9c-0.7-1.1-2.2-1.6-4.5-1.6L117,45.7z"/>
	<path class="st0" d="M164,45.6l10.4,0l24.9,47l-0.1-37c0-3.6-0.4-5.9-1.2-6.9c-0.8-1-2.4-1.6-4.9-1.6l0-1.6l13.8,0l0,1.6
		c-1.9,0-3.1,0.5-3.9,1.5s-1.1,2.7-1.1,5.3l0.1,57.3l-0.9,0l-27.9-52.3l0.1,41.1c0,3.8,0.4,6.2,1.2,7.2c0.8,1,2.7,1.5,5.5,1.5l0,1.6
		l-14.9,0l0-1.6c2.1,0,3.5-0.5,4.3-1.6c0.7-1,1.1-2.9,1.1-5.6l-0.1-47.7l-1.9-3.6c-0.6-1.1-1.3-1.9-1.9-2.3
		c-0.6-0.4-1.5-0.6-2.6-0.6L164,45.6z"/>
</g>
<circle class="st0" cx="19.3" cy="25.1" r="7.5"/>
<line class="st1" x1="49.5" y1="25.5" x2="206.5" y2="25.5"/>
</svg>
