<?xml version="1.0" encoding="utf-8"?>
<!-- Generator: Adobe Illustrator 24.0.2, SVG Export Plug-In . SVG Version: 6.00 Build 0)  -->
<svg version="1.1" id="레이어_1" xmlns="http://www.w3.org/2000/svg" xmlns:xlink="http://www.w3.org/1999/xlink" x="0px"
	 y="0px" viewBox="0 0 32.6 51" style="enable-background:new 0 0 32.6 51;" xml:space="preserve">
<style type="text/css">
	.st0{fill:#040000;}
</style>
<g>
	<g>
		<path class="st0" d="M13.7,7.4c2.5,10.9,3,22.3,1.4,33.4c-0.3,1.9,2.6,2.7,2.9,0.8c1.6-11.7,1.2-23.5-1.4-35
			C16.2,4.7,13.3,5.5,13.7,7.4L13.7,7.4z"/>
	</g>
</g>
<g>
	<g>
		<path class="st0" d="M2.2,34.1c2,2.3,4.3,4.5,6.7,6.4c1.2,0.9,2.4,1.8,3.7,2.6c1.2,0.8,2.6,1.6,4.1,1.7c1.4,0,2.6-0.8,3.4-1.8
			c1.1-1.3,2.1-2.6,3.1-4c2.2-2.8,4.4-5.7,6.6-8.5c0.5-0.6,0.1-1.7-0.5-2.1c-0.8-0.5-1.6-0.1-2.1,0.5c-1.8,2.4-3.7,4.8-5.5,7.1
			c-0.9,1.2-1.8,2.3-2.7,3.5c-0.7,0.8-1.4,2.3-2.7,2.1c-1.1-0.2-2.2-1.2-3.1-1.8c-1.1-0.7-2.1-1.5-3.2-2.4C8,35.9,6.1,34,4.4,32
			C3.1,30.5,1,32.7,2.2,34.1L2.2,34.1z"/>
	</g>
</g>
</svg>
